<svg width="444" height="193" viewBox="0 0 444 193" fill="none" xmlns="http://www.w3.org/2000/svg">
<g clip-path="url(#clip0_37_411)">
<path d="M63.01 177.032C64.44 175.212 65.74 173.332 67.3 171.572C67.75 171.052 68.73 171.052 69.51 171.052C100.68 171.052 131.85 171.112 163.03 171.242C170.95 171.242 178.81 171.302 186.73 171.822C190.69 172.082 194.65 173.252 198.42 174.422C202.58 175.852 205.82 178.772 207.25 184.362C207.7 183.582 208.03 183.192 208.16 182.802C209.91 178.122 213.1 175.592 217.12 174.102C223.09 171.892 229.26 171.572 235.43 171.572C271.15 171.382 306.93 171.312 342.71 171.122C343.68 171.122 344.59 171.182 345.63 171.062C347.12 170.802 348.03 171.322 348.16 173.272C348.16 173.722 348.29 174.052 348.42 174.502C349.13 178.072 349.13 178.202 345.82 178.532C343.03 178.792 340.3 178.982 337.44 178.982C302.05 179.042 266.65 179.042 231.26 179.042C225.42 179.042 219.77 180.472 214.83 184.242C211.32 186.972 208.99 190.672 208.01 195.352C207.95 195.672 207.88 195.932 207.69 196.322C207.69 196.382 207.56 196.512 207.3 196.642C207.17 196.122 206.85 195.672 206.78 195.152C205.35 188.462 201.39 184.372 196.06 181.772C191.97 179.762 187.55 179.042 183.14 178.982C163.4 178.922 143.59 179.042 123.85 179.042C106.84 178.982 89.82 178.782 72.87 178.522C69.69 178.462 66.51 178.002 63.32 177.682C63.06 177.492 63 177.232 63 177.032H63.01Z" fill="black"/>
<path d="M16.39 75.56C18.14 78.09 19.57 80.24 21 82.31C20.94 82.5 20.87 82.76 20.68 82.89C18.54 82.89 16.52 82.95 14.38 82.89C13.08 82.89 11.78 82.7 10.48 82.44C8.78997 82.12 8.26997 82.89 8.52997 84.65C9.43997 91.86 10.22 99 11.26 106.21C13.08 118.16 17.56 128.94 23.73 138.62C25.09 140.83 25.68 142.97 25.55 145.7C25.42 147.71 25.55 149.73 25.23 151.93C16.14 142.97 9.24997 132.32 4.89997 119.52C-0.560029 103.42 -1.02003 86.73 1.38997 69.46C2.35997 69.98 3.07997 70.3 3.72997 70.69C10.55 74.52 17.56 76.15 24.97 72.96C41.21 66.01 44.52 42.96 33.93 31.53C33.61 31.21 33.41 30.75 32.89 29.97C33.73 29.91 34.32 29.78 34.84 29.78C47.83 29.78 60.75 29.78 73.74 29.72C57.5 29.7681 58.02 30.3481 58.02 32.4981C57.89 38.0181 58.54 37.2381 53.73 37.2381L50.03 37.19C47.76 37.19 47.69 37.19 47.89 39.72C48.41 46.99 48.21 54.27 46.27 61.28C44.97 66.22 42.7 70.37 39.65 74.07C39.13 74.65 38.03 74.91 37.25 75.04C32.44 75.1 27.57 75.04 22.83 75.1C20.88 75.23 18.93 75.36 16.4 75.55L16.39 75.56Z" fill="black"/>
<path d="M399.05 29.76C389.83 41.84 388.92 54.11 397.82 65.67C407.11 77.88 418.47 76 429.97 69.7C435.81 80.22 429.26 124.32 420.42 133.6C418.8 131.52 417.17 129.51 415.81 127.17C415.42 126.46 415.55 125.09 415.87 124.12C417.69 117.43 419.96 111 421.33 104.12C422.69 97.11 423.08 89.9 423.99 82.3C421.78 82.49 419.96 82.36 418.15 82.75C416.46 83.01 415.55 82.56 415.88 80.48C416.14 78.79 415.1 78.4 414.13 77.88C408.16 74.96 401.73 74.11 395.3 73.85C392.7 73.79 390.95 72.62 389.59 70.15C386.86 65.15 384.98 59.95 385.11 53.91C385.17 51.9 384.53 49.88 384.4 47.87C384.27 45.34 384.34 42.67 384.4 40.08C384.46 37.09 384.53 37.09 382 37.09C378.04 37.09 374.14 37.03 370.25 37.09C368.89 37.09 368.37 36.64 368.37 35.01C368.43 28.58 367.79 29.75 372.79 29.68C380.71 29.62 388.57 29.68 396.49 29.68C397.14 29.74 397.85 29.74 399.09 29.74L399.05 29.76Z" fill="black"/>
<path d="M186.13 12.44C194.51 6.04 235.7 5.26 243.36 11.32C242.58 11.51 241.99 11.56 241.41 11.75C238.54 12.5 235.61 13.24 232.75 13.93C230.47 14.42 228.13 15.05 225.72 15.02C217.15 14.66 208.65 14.31 200.12 15.97C199.14 16.15 198.43 16.15 198.06 14.71C197.56 12.76 196.01 12.61 194.58 12.59C191.92 12.5 189.19 12.46 186.14 12.43L186.13 12.44Z" fill="black"/>
<path d="M123.12 30.76H128.8C129.52 30.76 129.85 31 129.85 32.23C129.89 36.39 129.93 36.39 127.18 36.39C123.98 36.39 120.74 36.34 117.58 36.39C116.79 36.39 116.49 36 116.53 34.82C116.61 29.97 116.12 30.9 119.09 30.85C120.41 30.65 121.72 30.75 123.12 30.75V30.76Z" fill="black"/>
<path d="M95.9233 30.0309H101.887C102.643 30.0309 102.99 30.2427 102.99 31.3283C103.032 35 103.074 35 100.186 35C96.8263 35 93.4243 34.9559 90.1062 35C89.2767 35 88.9617 34.6558 89.0037 33.6143C89.0877 29.3336 88.5732 30.1545 91.6917 30.1103C93.0778 29.9338 94.4533 30.0221 95.9233 30.0221V30.0309Z" fill="black"/>
<path d="M185.51 24.81C184.76 25.32 184.01 25.7 183.45 26.12C180.79 28.08 178.03 30.09 175.36 32.06C175.03 32.29 174.75 32.62 174.42 32.81C173.11 33.42 172.55 33 172.6 31.41C172.69 25.8 171.95 27.3 176.01 24.68C177.83 23.46 179.66 22.39 181.48 21.13C182.42 20.52 183.02 20.71 183.63 21.69C184.1 22.72 184.75 23.7 185.5 24.82L185.51 24.81Z" fill="black"/>
<path d="M285.9 37.18H275.87C274.33 37.18 273.65 36.73 273.65 35.49C273.75 28.41 272.59 29.9 280.4 29.71C285.32 29.65 290.43 29.71 295.45 29.71C297.28 29.71 297.96 30.16 297.96 31.66C298.087 35.34 295.74 37.18 290.92 37.18H285.9Z" fill="black"/>
<path d="M356.65 36.33H342.75C341.52 36.33 340.67 35.88 340.8 33.46C340.86 31.31 341.58 30.59 342.88 30.59C346.06 30.68 349.24 30.59 352.43 30.59C354.44 30.59 355.81 32.47 356.65 36.33Z" fill="black"/>
<path d="M318.63 37.18C314.08 37.12 314.6 38.15 314.6 32.5C314.6 30.68 315.38 29.77 316.94 29.77C318.24 29.77 319.54 29.83 320.9 29.77C322.26 29.71 322.72 30.29 322.65 31.78V32.36C322.59 38.07 323.23 37.1 318.62 37.17L318.63 37.18Z" fill="black"/>
<path d="M411.85 131.94C414.3 136.9 414.42 142.02 411.85 146.2C405.54 156.28 397.36 158.76 388.49 158.14C392.46 153.95 396.55 150.23 400.52 145.74C404.26 141.55 408 136.75 411.85 131.94Z" fill="black"/>
<path d="M164 38H150.761C149.882 38 148.945 38 149.003 35.0756C149.003 32.2773 149.882 32 150.819 32H160.734C162.299 32 163.121 34.042 164 38Z" fill="black"/>
<path d="M252.283 28.3579C247.846 25.4671 246.85 20.6119 249.829 17.1752C253.219 20.0142 254.023 23.7087 252.283 28.3579Z" fill="black"/>
<path d="M60.4 27.2C60.4 25.2 59.9 23.4333 58.9 21.9C57.9667 20.3667 56.7333 19 55.2 17.8C53.7333 16.6 52.4333 15.8 51.3 15.4H72.5L103.9 54.7V26.4C103.9 24 103.633 22.0667 103.1 20.6C102.633 19.1333 102.067 18.0333 101.4 17.3C100.733 16.5 99.7333 15.8667 98.4 15.4H120.1C118.567 15.6667 117.3 16.7667 116.3 18.7C115.367 20.6333 114.9 23.2 114.9 26.4V82H104.5C102.1 76 98.5333 70.1333 93.8 64.4L71.5 37.2V71.1C71.5 73.5667 71.8 75.6 72.4 77.2C73 78.7333 73.7667 79.9 74.7 80.7C75.7 81.4333 76.6333 81.8667 77.5 82H55.3C56.1667 81.8667 57 81.4 57.8 80.6C58.6 79.8 59.2333 78.6333 59.7 77.1C60.1667 75.5667 60.4 73.5667 60.4 71.1V27.2ZM132.266 26.6C132.266 23.6667 131.732 21.2 130.666 19.2C129.599 17.1333 128.066 15.8667 126.066 15.4H171.366V33.2C170.432 30 168.966 27.7667 166.966 26.5C164.966 25.1667 162.366 24.5 159.166 24.5H146.566V43.8H157.566C161.766 43.8667 164.432 42.7333 165.566 40.4V56.2C165.432 55.3333 164.699 54.5667 163.366 53.9C162.099 53.2333 160.232 52.9 157.766 52.9H146.566V72.8H160.166C164.366 72.8 167.532 72.1333 169.666 70.8C171.866 69.4 173.899 66.9333 175.766 63.4L172.566 82H126.866C127.732 81.8667 128.566 81.4 129.366 80.6C130.166 79.7333 130.832 78.4667 131.366 76.8C131.966 75.1333 132.266 72.9 132.266 70.1V26.6ZM178.551 82C179.951 81.8 181.851 80.5667 184.251 78.3C186.717 75.9667 189.217 72.9 191.751 69.1L205.051 50L190.051 27.2C185.317 20.3333 181.484 16.4 178.551 15.4H206.551C205.951 15.5333 205.317 15.9 204.651 16.5C203.984 17.1 203.651 18 203.651 19.2C203.651 20.0667 203.884 21.1333 204.351 22.4C204.884 23.6667 208.184 28.9 214.251 38.1C220.717 29.1 224.251 23.9 224.851 22.5C225.517 21.1 225.851 19.9 225.851 18.9C225.851 16.9667 225.017 15.8 223.351 15.4H246.751C245.617 15.6 243.951 16.7 241.751 18.7C239.617 20.7 237.384 23.3333 235.051 26.6L220.251 47.4L234.751 69.4C237.217 73.2667 239.617 76.3 241.951 78.5C244.284 80.7 245.951 81.8667 246.951 82H218.551C219.417 81.8667 220.151 81.5 220.751 80.9C221.351 80.3 221.651 79.3667 221.651 78.1C221.651 77.1667 221.351 76.0333 220.751 74.7C220.217 73.3 217.017 68.2 211.151 59.4C205.084 68.2667 201.684 73.4333 200.951 74.9C200.284 76.3 199.951 77.4333 199.951 78.3C199.951 80.4333 200.851 81.6667 202.651 82H178.551ZM255.877 26.6C255.877 20.1333 254.144 16.4 250.677 15.4H275.377C274.577 15.5333 273.777 16 272.977 16.8C272.244 17.5333 271.611 18.7 271.077 20.3C270.544 21.8333 270.277 23.8333 270.277 26.3V58.5C270.277 64.1 271.411 68.0333 273.677 70.3C275.944 72.5667 279.411 73.7 284.077 73.7C288.944 73.7 292.344 72.4333 294.277 69.9C296.277 67.3667 297.277 63.5667 297.277 58.5V26.7C297.277 20.1 295.344 16.3333 291.477 15.4H314.977C313.311 15.6667 311.944 16.8333 310.877 18.9C309.877 20.9 309.377 23.5 309.377 26.7V58.1C309.377 75.0333 300.677 83.5 283.277 83.5C273.677 83.5 266.711 81.4667 262.377 77.4C258.044 73.3333 255.877 67.2333 255.877 59.1V26.6ZM322.202 59.6C326.402 68.9333 333.102 73.6 342.302 73.6C345.368 73.6 348.002 72.9333 350.202 71.6C352.402 70.2667 353.502 68.4 353.502 66C353.502 63.8667 352.635 61.9333 350.902 60.2C349.168 58.4667 346.302 56.6333 342.302 54.7C334.368 51.1 329.068 47.7667 326.402 44.7C323.802 41.6333 322.502 38.0333 322.502 33.9C322.502 27.9 324.668 23.1 329.002 19.5C333.402 15.8333 339.202 14 346.402 14C349.602 14 352.668 14.4333 355.602 15.3C358.602 16.1667 361.002 17.2333 362.802 18.5V34.4C361.068 31.3333 358.602 28.8 355.402 26.8C352.202 24.7333 348.902 23.7 345.502 23.7C342.168 23.7 339.668 24.4 338.002 25.8C336.402 27.2 335.602 28.9333 335.602 31C335.602 32.8667 336.335 34.6 337.802 36.2C339.335 37.7333 342.902 39.7667 348.502 42.3C355.835 45.6333 360.768 48.9 363.302 52.1C365.902 55.3 367.202 59.1 367.202 63.5C367.202 69.5 364.935 74.3333 360.402 78C355.935 81.6667 349.768 83.5 341.902 83.5C334.235 83.5 327.668 81.8333 322.202 78.5V59.6Z" fill="#C9AB6E"/>
<path d="M62.8501 93.69H75.2401L98.3401 150.5C101.28 158.06 104.6 162.44 108.32 163.62H80.0701C81.1901 163.48 82.1201 162.99 82.8501 162.15C83.5901 161.31 83.9501 160.16 83.9501 158.69C83.9501 157.64 82.6901 153.75 80.1701 147.04H53.4001C51.2301 152.99 33.1401 177.03 33.1401 178.5C33.1401 180.18 32.2701 181.14 33.1401 182.04C34.0101 182.95 35.0101 183.48 36.1301 183.62H12.6201C14.0201 183.41 15.6101 182.15 17.4001 179.84C19.1801 177.53 20.8801 174.31 22.4901 170.18L62.8501 93.7V93.69ZM76.6001 137.89L66.6201 112.06L56.8501 137.89H76.5901H76.6001Z" fill="#C9AB6E"/>
<path d="M118.5 105.87C118.5 99.15 116.36 95.09 112.09 93.69H142.86C150.35 93.69 156.35 95.65 160.87 99.57C165.39 103.49 167.64 108.36 167.64 114.16C167.64 119.06 166.12 123.33 163.07 126.97C160.03 130.61 155.84 132.78 150.52 133.48C152.34 134.6 154.09 136.63 155.77 139.57L165.11 155.74C166.44 158.12 167.96 160.01 169.68 161.41C171.39 162.81 172.92 163.55 174.25 163.62H152.94L141.28 142.1C140.02 139.72 138.9 138.13 137.92 137.32C136.94 136.52 135.75 136.11 134.35 136.11H132.88V151.96C132.88 154.62 133.16 156.79 133.72 158.47C134.28 160.15 134.96 161.39 135.77 162.2C136.57 163.01 137.4 163.48 138.24 163.62H112.94C113.85 163.48 114.74 163.01 115.62 162.2C116.49 161.4 117.2 160.14 117.72 158.42C118.24 156.71 118.51 154.55 118.51 151.96V105.86L118.5 105.87ZM140.13 126.66C144.05 126.66 147.11 125.58 149.32 123.41C151.53 121.24 152.63 118.3 152.63 114.59C152.63 111.3 151.49 108.59 149.22 106.45C146.94 104.32 143.88 103.25 140.03 103.25H132.78V126.67H140.13V126.66Z" fill="#C9AB6E"/>
<path d="M185.28 105.45C185.28 102.37 184.72 99.76 183.6 97.63C182.48 95.5 180.87 94.18 178.77 93.69H226.34V112.38C225.36 109.02 223.82 106.66 221.72 105.29C219.62 103.93 216.89 103.24 213.53 103.24H200.3V123.51H211.85C216.26 123.58 219.06 122.39 220.25 119.94V136.53C220.11 135.62 219.36 134.82 217.99 134.11C216.63 133.41 214.65 133.06 212.06 133.06H200.3V153.96H214.58C218.99 153.96 222.33 153.24 224.61 151.81C226.88 150.38 229 147.8 230.96 144.09L227.6 163.62H179.61C180.52 163.48 181.4 162.97 182.23 162.1C183.07 161.23 183.79 159.91 184.38 158.16C184.97 156.41 185.27 154.06 185.27 151.12V105.45H185.28Z" fill="#C9AB6E"/>
<path d="M243.24 106.08C243.24 103.98 242.73 102.13 241.72 100.52C240.7 98.91 239.41 97.48 237.84 96.21C236.26 94.95 234.88 94.11 233.69 93.69H255.95L288.92 134.96V105.25C288.92 102.73 288.66 100.7 288.13 99.16C287.6 97.62 286.99 96.45 286.29 95.64C285.59 94.84 284.54 94.19 283.14 93.7H305.93C304.32 93.98 303.01 95.14 301.99 97.17C300.97 99.2 300.47 101.89 300.47 105.25V163.63H289.55C287.03 157.33 283.28 151.17 278.32 145.15L254.9 116.59V152.19C254.9 154.78 255.21 156.9 255.84 158.54C256.47 160.19 257.29 161.41 258.31 162.21C259.32 163.02 260.29 163.49 261.2 163.63H237.89C238.8 163.49 239.68 163 240.51 162.16C241.35 161.32 242.01 160.1 242.51 158.49C243 156.88 243.25 154.78 243.25 152.19V106.09L243.24 106.08Z" fill="#C9AB6E"/>
<path d="M391.49 170.18C393.1 174.31 394.8 177.53 396.58 179.84C398.37 182.15 399.96 183.41 401.36 183.62H377.84C378.96 183.48 379.96 182.96 380.83 182.04C381.71 181.13 377.84 178.68 377.84 177C377.84 175.53 362.74 152.99 360.57 147.04H333.8C331.28 153.76 330.02 157.64 330.02 158.69C330.02 160.16 330.39 161.32 331.12 162.15C331.85 162.99 332.78 163.48 333.9 163.62H305.65C309.36 162.43 312.69 158.06 315.63 150.49L338.73 93.68H351.12L391.48 170.16L391.49 170.18ZM357.11 137.91L347.34 112.08L337.36 137.91H357.1H357.11Z" fill="#C9AB6E"/>
</g>
<defs>
<clipPath id="clip0_37_411">
<rect width="443.85" height="192.72" fill="white"/>
</clipPath>
</defs>
</svg>
