<svg width="26" height="20" viewBox="0 0 26 20" fill="none" xmlns="http://www.w3.org/2000/svg">
<path d="M21.7809 1.65553C20.2101 0.880904 18.5094 0.318677 16.7379 -0.00616455C16.7067 -0.00569515 16.677 0.00777715 16.6552 0.0313175C16.4426 0.443617 16.1946 0.980855 16.0292 1.39315C14.1502 1.09349 12.2393 1.09349 10.3603 1.39315C10.1949 0.968361 9.94693 0.443617 9.72254 0.0313175C9.71073 0.00632964 9.67529 -0.00616455 9.63986 -0.00616455C7.86832 0.318677 6.17944 0.880904 4.59686 1.65553C4.58505 1.65553 4.57324 1.66802 4.56143 1.68052C1.34903 6.76554 0.463255 11.7131 0.900237 16.6108C0.900237 16.6357 0.912047 16.6607 0.935667 16.6732C3.06152 18.3224 5.10471 19.3219 7.12427 19.9841C7.1597 19.9966 7.19513 19.9841 7.20694 19.9591C7.67935 19.272 8.10452 18.5473 8.47064 17.7852C8.49426 17.7352 8.47064 17.6852 8.4234 17.6727C7.75022 17.3979 7.11246 17.073 6.48651 16.6982C6.43927 16.6732 6.43927 16.5983 6.4747 16.5608C6.60462 16.4608 6.73453 16.3484 6.86444 16.2484C6.88806 16.2234 6.92349 16.2234 6.94711 16.2359C11.0099 18.1975 15.3915 18.1975 19.407 16.2359C19.4306 16.2234 19.466 16.2234 19.4897 16.2484C19.6196 16.3609 19.7495 16.4608 19.8794 16.5733C19.9266 16.6108 19.9266 16.6857 19.8676 16.7107C19.2535 17.098 18.6039 17.4104 17.9307 17.6852C17.8835 17.6977 17.8716 17.7602 17.8835 17.7977C18.2614 18.5598 18.6866 19.2845 19.1472 19.9716C19.1826 19.9841 19.218 19.9966 19.2535 19.9841C21.2848 19.3219 23.328 18.3224 25.4539 16.6732C25.4775 16.6607 25.4893 16.6357 25.4893 16.6108C26.0089 10.951 24.6271 6.04089 21.8281 1.68052C21.8163 1.66802 21.8045 1.65553 21.7809 1.65553ZM9.08478 13.6247C7.86832 13.6247 6.85263 12.4378 6.85263 10.976C6.85263 9.51421 7.8447 8.32728 9.08478 8.32728C10.3367 8.32728 11.3287 9.5267 11.3169 10.976C11.3169 12.4378 10.3249 13.6247 9.08478 13.6247ZM17.3166 13.6247C16.1001 13.6247 15.0844 12.4378 15.0844 10.976C15.0844 9.51421 16.0765 8.32728 17.3166 8.32728C18.5685 8.32728 19.5605 9.5267 19.5487 10.976C19.5487 12.4378 18.5685 13.6247 17.3166 13.6247Z" fill="#F0E6D2"/>
</svg>
