<svg width="22" height="23" viewBox="0 0 22 23" fill="none" xmlns="http://www.w3.org/2000/svg">
<path d="M6.78967 0.986145H15.6036C18.9612 0.986145 21.6893 3.8455 21.6893 7.3647V16.6026C21.6893 18.2943 21.0482 19.9167 19.9068 21.1129C18.7655 22.3091 17.2176 22.9811 15.6036 22.9811H6.78967C3.432 22.9811 0.703888 20.1218 0.703888 16.6026V7.3647C0.703888 5.673 1.34507 4.05059 2.48637 2.85438C3.62768 1.65817 5.17562 0.986145 6.78967 0.986145ZM6.57981 3.18565C5.57799 3.18565 4.6172 3.60276 3.9088 4.34524C3.20041 5.08771 2.80243 6.09473 2.80243 7.14475V16.8225C2.80243 19.011 4.49176 20.7816 6.57981 20.7816H15.8134C16.8152 20.7816 17.776 20.3645 18.4844 19.6221C19.1928 18.8796 19.5908 17.8726 19.5908 16.8225V7.14475C19.5908 4.95624 17.9015 3.18565 15.8134 3.18565H6.57981ZM16.7053 4.83527C17.0531 4.83527 17.3868 4.9801 17.6327 5.23791C17.8787 5.49571 18.0169 5.84537 18.0169 6.20996C18.0169 6.57455 17.8787 6.92421 17.6327 7.18201C17.3868 7.43981 17.0531 7.58465 16.7053 7.58465C16.3574 7.58465 16.0238 7.43981 15.7779 7.18201C15.5319 6.92421 15.3937 6.57455 15.3937 6.20996C15.3937 5.84537 15.5319 5.49571 15.7779 5.23791C16.0238 4.9801 16.3574 4.83527 16.7053 4.83527ZM11.1966 6.4849C12.588 6.4849 13.9225 7.06423 14.9063 8.09544C15.8902 9.12666 16.443 10.5253 16.443 11.9836C16.443 13.442 15.8902 14.8406 14.9063 15.8719C13.9225 16.9031 12.588 17.4824 11.1966 17.4824C9.80519 17.4824 8.47076 16.9031 7.48687 15.8719C6.50299 14.8406 5.95025 13.442 5.95025 11.9836C5.95025 10.5253 6.50299 9.12666 7.48687 8.09544C8.47076 7.06423 9.80519 6.4849 11.1966 6.4849ZM11.1966 8.6844C10.3618 8.6844 9.5611 9.03199 8.97077 9.65072C8.38044 10.2695 8.04879 11.1086 8.04879 11.9836C8.04879 12.8587 8.38044 13.6978 8.97077 14.3166C9.5611 14.9353 10.3618 15.2829 11.1966 15.2829C12.0315 15.2829 12.8321 14.9353 13.4225 14.3166C14.0128 13.6978 14.3444 12.8587 14.3444 11.9836C14.3444 11.1086 14.0128 10.2695 13.4225 9.65072C12.8321 9.03199 12.0315 8.6844 11.1966 8.6844Z" fill="#F0E6D2"/>
</svg>
